Coordinates
version=1
nRows=17
nColumns=40
inDegrees=yes

Units are S.I. units (second, meters, Newtons, ...)
If the header above contains a line with 'inDegrees', this indicates whether rotational values are in degrees (yes) or radians (no).

endheader
time	pelvis_tilt	pelvis_list	pelvis_rotation	pelvis_tx	pelvis_ty	pelvis_tz	hip_flexion_r	hip_adduction_r	hip_rotation_r	knee_angle_r	knee_angle_r_beta	ankle_angle_r	subtalar_angle_r	mtp_angle_r	hip_flexion_l	hip_adduction_l	hip_rotation_l	knee_angle_l	knee_angle_l_beta	ankle_angle_l	subtalar_angle_l	mtp_angle_l	lumbar_extension	lumbar_bending	lumbar_rotation	arm_flex_r	arm_add_r	arm_rot_r	elbow_flex_r	pro_sup_r	wrist_flex_r	wrist_dev_r	arm_flex_l	arm_add_l	arm_rot_l	elbow_flex_l	pro_sup_l	wrist_flex_l	wrist_dev_l
      4.25000000	     -3.54939552	     -9.57924598	      6.06047109	     -0.37798639	      0.86364035	     -1.04404088	     64.46930373	     -5.33588754	    -15.23638447	     49.23718575	      0.85935101	     -0.36347854	      0.00000000	      0.00000000	     50.66975351	     -2.82051319	      3.59465795	     76.38082500	      1.33309688	     19.05269844	      0.00000000	      0.00000000	    -18.46700876	      6.68845734	      2.37752212	     89.82115854	    -21.04669067	     22.15869006	     43.55344522	     84.57212690	      0.00000000	      0.00000000	     89.91358279	    -22.77946473	     31.89136188	     46.92011525	     85.04034160	      0.00000000	      0.00000000
      4.25500000	     -3.51474387	     -9.54989458	      6.07532314	     -0.37757897	      0.86554862	     -1.04415679	     64.26508542	     -5.32858990	    -15.19423627	     49.10627751	      0.85706623	     -0.41495961	      0.00000000	      0.00000000	     50.39839487	     -2.81778365	      3.55171992	     76.01039078	      1.32663158	     18.93005138	      0.00000000	      0.00000000	    -18.43791703	      6.69741747	      2.37588349	     89.82030473	    -21.12446612	     22.32547328	     43.51817511	     84.56342410	      0.00000000	      0.00000000	     89.91307888	    -22.78273745	     32.04901347	     46.89276267	     85.03666728	      0.00000000	      0.00000000
      4.26000000	     -3.45843567	     -9.50762616	      6.08425036	     -0.37706289	      0.86755044	     -1.04418343	     64.02918989	     -5.30914180	    -15.18376404	     48.95248142	      0.85438198	     -0.46622617	      0.00000000	      0.00000000	     50.09016347	     -2.80584024	      3.53054641	     75.64858719	      1.32031692	     18.77962427	      0.00000000	      0.00000000	    -18.41947551	      6.67104449	      2.37700381	     89.81716868	    -21.19881664	     22.55969956	     43.44393827	     84.55098064	      0.00000000	      0.00000000	     89.91255883	    -22.77873770	     32.22608719	     46.87234347	     85.03022727	      0.00000000	      0.00000000
      4.26500000	     -3.46662153	     -9.59723928	      6.08084605	     -0.37655608	      0.86936327	     -1.04410544	     63.86911126	     -5.20975257	    -15.23306232	     48.82754498	      0.85220143	     -0.49156450	      0.00000000	      0.00000000	     49.89067518	     -2.92656633	      3.55982378	     75.28237943	      1.31392539	     18.65264990	      0.00000000	      0.00000000	    -18.32141827	      6.77199249	      2.41166581	     89.81275834	    -21.29346840	     22.73247220	     43.39965740	     84.53835148	      0.00000000	      0.00000000	     89.91144794	    -22.78070145	     32.37910686	     46.83839491	     85.02462138	      0.00000000	      0.00000000
      4.27000000	     -3.42979459	     -9.69234661	      6.11014016	     -0.37610026	      0.87139528	     -1.04414656	     63.59674162	     -5.12483889	    -15.34305898	     48.56288733	      0.84758228	     -0.56895802	      0.00000000	      0.00000000	     49.64962380	     -3.00717322	      3.65445438	     74.92240229	      1.30764260	     18.48839453	      0.00000000	      0.00000000	    -18.26743883	      6.90691258	      2.45088297	     89.81087110	    -21.41659991	     23.01136239	     43.33788542	     84.52160341	      0.00000000	      0.00000000	     89.91091658	    -22.79488035	     32.63727381	     46.81265506	     85.01944656	      0.00000000	      0.00000000
      4.27500000	     -3.40020978	     -9.65911723	      6.12704617	     -0.37556690	      0.87341614	     -1.04420335	     63.39010073	     -5.12077238	    -15.34116628	     48.44627280	      0.84554697	     -0.59489179	      0.00000000	      0.00000000	     49.35006773	     -3.02577088	      3.58934020	     74.49469348	      1.30017768	     18.34206476	      0.00000000	      0.00000000	    -18.22126756	      6.89035274	      2.42876325	     89.80734602	    -21.49165451	     23.18439763	     43.30375723	     84.50842483	      0.00000000	      0.00000000	     89.90981241	    -22.79931816	     32.78793179	     46.76678116	     85.01079861	      0.00000000	      0.00000000
      4.28000000	     -3.20001970	     -9.55628721	      6.13485845	     -0.37488234	      0.87581617	     -1.04436478	     62.97648567	     -5.11338932	    -15.26680934	     48.28403306	      0.84271535	     -0.67585918	      0.00000000	      0.00000000	     48.84190778	     -3.00058354	      3.49040598	     74.09876551	      1.29326743	     18.13544315	      0.00000000	      0.00000000	    -18.34574289	      6.81538759	      2.44924603	     89.80552040	    -21.66087040	     23.51395049	     43.22364397	     84.47424923	      0.00000000	      0.00000000	     89.90929548	    -22.82046552	     33.07494337	     46.70471309	     84.99375116	      0.00000000	      0.00000000
      4.28500000	     -3.23334995	     -9.58100902	      6.15710814	     -0.37450430	      0.87776324	     -1.04438699	     62.85329798	     -5.08324157	    -15.25216351	     48.20154180	      0.84127561	     -0.67351207	      0.00000000	      0.00000000	     48.64247140	     -3.03785227	      3.49007990	     73.66611458	      1.28571625	     18.01028943	      0.00000000	      0.00000000	    -18.25375840	      6.86309683	      2.44211692	     89.80061064	    -21.67522890	     23.60745936	     43.17802490	     84.46192165	      0.00000000	      0.00000000	     89.90804736	    -22.79522727	     33.13755625	     46.70356798	     84.98276602	      0.00000000	      0.00000000
      4.29000000	     -3.22647629	     -9.60396089	      6.17558545	     -0.37394605	      0.87969034	     -1.04442051	     62.66455068	     -5.03821860	    -15.26707548	     48.03847274	      0.83842952	     -0.69738437	      0.00000000	      0.00000000	     48.38877150	     -3.08396212	      3.49059028	     73.25480193	      1.27853749	     17.85889032	      0.00000000	      0.00000000	    -18.15745199	      6.90471376	      2.42853799	     89.79582589	    -21.75611703	     23.76058337	     43.09739870	     84.45340308	      0.00000000	      0.00000000	     89.90639626	    -22.80640258	     33.28807477	     46.68027245	     84.97975482	      0.00000000	      0.00000000
      4.29500000	     -3.23294031	     -9.66830406	      6.14095110	     -0.37338852	      0.88158732	     -1.04436092	     62.48962421	     -4.92410875	    -15.27802722	     47.88187030	      0.83569629	     -0.74702978	      0.00000000	      0.00000000	     48.16403700	     -3.17879045	      3.53155841	     72.88305497	      1.27204928	     17.71469307	      0.00000000	      0.00000000	    -18.05666644	      6.97986985	      2.46701267	     89.79107957	    -21.80250772	     23.96904196	     43.02615833	     84.44924745	      0.00000000	      0.00000000	     89.90560226	    -22.81810247	     33.47414230	     46.60091841	     84.97645541	      0.00000000	      0.00000000
      4.30000000	     -3.05684526	     -9.55211120	      6.14440413	     -0.37276595	      0.88400142	     -1.04446667	     62.08016960	     -4.91444775	    -15.19135183	     47.67635483	      0.83210937	     -0.87099746	      0.00000000	      0.00000000	     47.68854311	     -3.14955892	      3.40604226	     72.49068530	      1.26520114	     17.51142741	      0.00000000	      0.00000000	    -18.15872773	      6.89888775	      2.49055754	     89.78780737	    -21.91845729	     24.34266467	     42.94150101	     84.41905902	      0.00000000	      0.00000000	     89.90559532	    -22.85645382	     33.81641240	     46.55939994	     84.96012726	      0.00000000	      0.00000000
      4.30500000	     -3.05040644	     -9.58825212	      6.14515908	     -0.37220476	      0.88609454	     -1.04444183	     61.91683316	     -4.84438631	    -15.16014380	     47.61936924	      0.83111478	     -0.87113710	      0.00000000	      0.00000000	     47.39314862	     -3.23432974	      3.39207621	     72.00554048	      1.25673376	     17.38980161	      0.00000000	      0.00000000	    -18.08523540	      6.94125050	      2.48993801	     89.78060024	    -21.97418542	     24.45120880	     42.90776818	     84.40061984	      0.00000000	      0.00000000	     89.90365746	    -22.86853336	     33.93133659	     46.55544694	     84.95110269	      0.00000000	      0.00000000
      4.31000000	     -2.92859478	     -9.59794397	      6.24012208	     -0.37166008	      0.88828292	     -1.04461187	     61.55623642	     -4.84402937	    -15.16990379	     47.39955076	      0.82727822	     -0.87675798	      0.00000000	      0.00000000	     47.03013292	     -3.22368112	      3.43525161	     71.61715704	      1.24995519	     17.19356268	      0.00000000	      0.00000000	    -18.10755720	      7.00631755	      2.45495309	     89.77879327	    -22.09493005	     24.80024808	     42.81884810	     84.36162669	      0.00000000	      0.00000000	     89.90327538	    -22.89323243	     34.22611388	     46.51043473	     84.92773105	      0.00000000	      0.00000000
      4.31500000	     -2.97684227	     -9.66152560	      6.21486371	     -0.37113576	      0.89016878	     -1.04447494	     61.45916139	     -4.74562850	    -15.16943797	     47.35178870	      0.82644462	     -0.88187874	      0.00000000	      0.00000000	     46.84404743	     -3.33026014	      3.43417424	     71.21175778	      1.24287964	     17.06996056	      0.00000000	      0.00000000	    -17.96928223	      7.07137224	      2.46979233	     89.77229347	    -22.13547312	     24.88330943	     42.80846519	     84.34002861	      0.00000000	      0.00000000	     89.90146794	    -22.90914381	     34.32453464	     46.50214581	     84.91782572	      0.00000000	      0.00000000
      4.32000000	     -2.97818797	     -9.67058170	      6.22174861	     -0.37054474	      0.89214248	     -1.04454222	     61.29590053	     -4.71276357	    -15.12554011	     47.25422806	      0.82474187	     -0.92844343	      0.00000000	      0.00000000	     46.61885595	     -3.36735685	      3.41065073	     70.85946177	      1.23673091	     16.94998413	      0.00000000	      0.00000000	    -17.88077188	      7.12359827	      2.49690928	     89.76839585	    -22.19328494	     24.98157967	     42.74883946	     84.32897175	      0.00000000	      0.00000000	     89.89952421	    -22.93667718	     34.43523012	     46.48767998	     84.91742858	      0.00000000	      0.00000000
      4.32500000	     -2.90022207	     -9.74411612	      6.25381729	     -0.36995945	      0.89431410	     -1.04458195	     60.99505796	     -4.61913695	    -15.14418877	     47.03796810	      0.82096742	     -1.01929136	      0.00000000	      0.00000000	     46.25558028	     -3.44407051	      3.49005647	     70.36364354	      1.22807725	     16.72743335	      0.00000000	      0.00000000	    -17.86153507	      7.20910236	      2.46444683	     89.76304380	    -22.22917246	     25.26576216	     42.64546887	     84.31106351	      0.00000000	      0.00000000	     89.89937384	    -22.97970060	     34.72243792	     46.42851656	     84.91790965	      0.00000000	      0.00000000
      4.33000000	     -2.81396259	     -9.74948228	      6.24919768	     -0.36930201	      0.89648921	     -1.04466889	     60.70721873	     -4.55713274	    -15.15335935	     46.90585619	      0.81866163	     -1.05031397	      0.00000000	      0.00000000	     45.89862370	     -3.49584525	      3.45840373	     69.95698849	      1.22097978	     16.53988735	      0.00000000	      0.00000000	    -17.83882335	      7.23392424	      2.53793242	     89.75815713	    -22.38421651	     25.54718524	     42.54906312	     84.28216885	      0.00000000	      0.00000000	     89.89846146	    -22.93785793	     35.01829568	     46.40056196	     84.90856609	      0.00000000	      0.00000000
